<mxfile host="app.diagrams.net" modified="2022-11-10T04:14:35.192Z" agent="5.0 (Macintosh; Intel Mac OS X 10_15_7) AppleWebKit/537.36 (KHTML, like Gecko) Chrome/106.0.0.0 Safari/537.36" etag="pWwENc0rkYzP-C7OGLBc" version="20.5.1" type="github">
  <diagram id="RbVBDg80DBUu3hUL3SYM" name="Page-1">
    <mxGraphModel dx="1183" dy="693" grid="1" gridSize="10" guides="1" tooltips="1" connect="1" arrows="1" fold="1" page="1" pageScale="1" pageWidth="850" pageHeight="1100" math="0" shadow="0">
      <root>
        <mxCell id="0" />
        <mxCell id="1" parent="0" />
        <mxCell id="Vw9tJEkoh5inFPpGIsFm-22" style="edgeStyle=orthogonalEdgeStyle;rounded=0;orthogonalLoop=1;jettySize=auto;html=1;strokeColor=#424242;strokeWidth=2;fontSize=14;fontColor=#424242;" edge="1" parent="1" target="3ABSFbOW-w0yrB__tbnE-3">
          <mxGeometry relative="1" as="geometry">
            <mxPoint x="211" y="140" as="sourcePoint" />
            <Array as="points">
              <mxPoint x="211" y="160" />
              <mxPoint x="173" y="160" />
            </Array>
          </mxGeometry>
        </mxCell>
        <mxCell id="Vw9tJEkoh5inFPpGIsFm-23" style="edgeStyle=orthogonalEdgeStyle;rounded=0;orthogonalLoop=1;jettySize=auto;html=1;strokeColor=#424242;strokeWidth=2;fontSize=14;fontColor=#424242;" edge="1" parent="1" source="3ABSFbOW-w0yrB__tbnE-1" target="3ABSFbOW-w0yrB__tbnE-5">
          <mxGeometry relative="1" as="geometry">
            <mxPoint x="211" y="150" as="sourcePoint" />
            <Array as="points">
              <mxPoint x="211" y="140" />
              <mxPoint x="100" y="140" />
              <mxPoint x="100" y="460" />
            </Array>
          </mxGeometry>
        </mxCell>
        <mxCell id="Vw9tJEkoh5inFPpGIsFm-41" value="n=160" style="edgeLabel;html=1;align=center;verticalAlign=middle;resizable=0;points=[];fontSize=11;fontColor=#666666;" vertex="1" connectable="0" parent="Vw9tJEkoh5inFPpGIsFm-23">
          <mxGeometry x="-0.9103" relative="1" as="geometry">
            <mxPoint x="1" as="offset" />
          </mxGeometry>
        </mxCell>
        <mxCell id="Vw9tJEkoh5inFPpGIsFm-43" style="edgeStyle=orthogonalEdgeStyle;rounded=0;orthogonalLoop=1;jettySize=auto;html=1;exitX=0;exitY=0.5;exitDx=0;exitDy=0;dashed=1;strokeColor=#424242;strokeWidth=1;fontSize=11;fontColor=#666666;dashPattern=1 2;" edge="1" parent="1" source="3ABSFbOW-w0yrB__tbnE-1" target="3ABSFbOW-w0yrB__tbnE-28">
          <mxGeometry relative="1" as="geometry">
            <Array as="points" />
          </mxGeometry>
        </mxCell>
        <mxCell id="3ABSFbOW-w0yrB__tbnE-1" value="Interviews" style="text;html=1;align=center;verticalAlign=middle;whiteSpace=wrap;rounded=1;fontSize=13;fillColor=#A7A7A7;fontColor=#424242;strokeColor=none;" parent="1" vertex="1">
          <mxGeometry x="151" y="90" width="120" height="30" as="geometry" />
        </mxCell>
        <mxCell id="3ABSFbOW-w0yrB__tbnE-10" value="In-person or online" style="text;html=1;align=center;verticalAlign=middle;whiteSpace=wrap;rounded=0;fontSize=10;fontColor=#424242;" parent="1" vertex="1">
          <mxGeometry x="346" y="52" width="130" height="30" as="geometry" />
        </mxCell>
        <mxCell id="3ABSFbOW-w0yrB__tbnE-11" value="Adaptive Capacity Framework Creation" style="text;html=1;align=center;verticalAlign=middle;whiteSpace=wrap;rounded=1;fontSize=14;fillColor=#A7A7A7;strokeColor=none;fontColor=#424242;" parent="1" vertex="1">
          <mxGeometry x="270" y="11" width="180" height="41" as="geometry" />
        </mxCell>
        <mxCell id="3ABSFbOW-w0yrB__tbnE-23" value="" style="strokeWidth=2;html=1;shape=mxgraph.flowchart.annotation_2;align=left;labelPosition=right;pointerEvents=1;fontSize=10;fontColor=#424242;rotation=90;strokeColor=#424242;" parent="1" vertex="1">
          <mxGeometry x="349.38" y="-71.62" width="21.25" height="300" as="geometry" />
        </mxCell>
        <mxCell id="3ABSFbOW-w0yrB__tbnE-28" value="Goal: Create framework draft" style="text;html=1;align=center;verticalAlign=middle;whiteSpace=wrap;rounded=0;fontSize=11;fontColor=#424242;" parent="1" vertex="1">
          <mxGeometry x="20" y="90" width="104" height="30" as="geometry" />
        </mxCell>
        <mxCell id="Vw9tJEkoh5inFPpGIsFm-39" style="edgeStyle=orthogonalEdgeStyle;rounded=0;orthogonalLoop=1;jettySize=auto;html=1;exitX=0.5;exitY=1;exitDx=0;exitDy=0;dashed=1;dashPattern=1 1;strokeColor=#424242;strokeWidth=1;fontSize=14;fontColor=#424242;entryX=0.5;entryY=0;entryDx=0;entryDy=0;" edge="1" parent="1" source="3ABSFbOW-w0yrB__tbnE-29" target="3ABSFbOW-w0yrB__tbnE-36">
          <mxGeometry relative="1" as="geometry">
            <mxPoint x="449.9565217391307" y="295" as="targetPoint" />
          </mxGeometry>
        </mxCell>
        <mxCell id="3ABSFbOW-w0yrB__tbnE-29" value="Goal: Obtain percent agreement of the framework and weights for variables" style="text;html=1;align=center;verticalAlign=middle;whiteSpace=wrap;rounded=0;fontSize=11;fontColor=#424242;" parent="1" vertex="1">
          <mxGeometry x="431" y="180" width="160" height="30" as="geometry" />
        </mxCell>
        <mxCell id="3ABSFbOW-w0yrB__tbnE-36" value="&lt;font style=&quot;font-size: 11px;&quot;&gt;Invite participants to be part of a Narrative Photography project to tell their stories&lt;/font&gt;" style="text;html=1;align=center;verticalAlign=middle;whiteSpace=wrap;rounded=0;fontColor=#666666;fontStyle=2;fontSize=11;" parent="1" vertex="1">
          <mxGeometry x="390" y="300" width="170" height="60" as="geometry" />
        </mxCell>
        <mxCell id="Vw9tJEkoh5inFPpGIsFm-2" value="" style="group;fontColor=#424242;" vertex="1" connectable="0" parent="1">
          <mxGeometry x="130" y="180" width="205" height="363" as="geometry" />
        </mxCell>
        <mxCell id="Vw9tJEkoh5inFPpGIsFm-1" value="" style="endArrow=none;dashed=1;html=1;rounded=0;fontSize=10;fontColor=#424242;elbow=vertical;entryX=0.5;entryY=1;entryDx=0;entryDy=0;" edge="1" parent="Vw9tJEkoh5inFPpGIsFm-2">
          <mxGeometry width="50" height="50" relative="1" as="geometry">
            <mxPoint x="102" y="369" as="sourcePoint" />
            <mxPoint x="102" y="289" as="targetPoint" />
          </mxGeometry>
        </mxCell>
        <mxCell id="3ABSFbOW-w0yrB__tbnE-3" value="First Meeting" style="text;html=1;align=center;verticalAlign=middle;whiteSpace=wrap;rounded=0;fontColor=#424242;" parent="Vw9tJEkoh5inFPpGIsFm-2" vertex="1">
          <mxGeometry width="85" height="30" as="geometry" />
        </mxCell>
        <mxCell id="3ABSFbOW-w0yrB__tbnE-5" value="Second Meeting" style="text;html=1;align=center;verticalAlign=middle;whiteSpace=wrap;rounded=0;fontColor=#424242;" parent="Vw9tJEkoh5inFPpGIsFm-2" vertex="1">
          <mxGeometry y="264" width="105" height="30" as="geometry" />
        </mxCell>
        <mxCell id="3ABSFbOW-w0yrB__tbnE-16" value="Conversation about community, climate change, and adaptive capacity" style="text;html=1;align=center;verticalAlign=middle;whiteSpace=wrap;rounded=0;fillColor=#e1d5e7;strokeColor=#9673a6;fontColor=#424242;" parent="Vw9tJEkoh5inFPpGIsFm-2" vertex="1">
          <mxGeometry y="23" width="205" height="60" as="geometry" />
        </mxCell>
        <mxCell id="3ABSFbOW-w0yrB__tbnE-20" value="Feedback on framework" style="text;html=1;align=center;verticalAlign=middle;whiteSpace=wrap;rounded=0;fillColor=#e1d5e7;strokeColor=#9673a6;fontColor=#424242;" parent="Vw9tJEkoh5inFPpGIsFm-2" vertex="1">
          <mxGeometry y="289" width="205" height="40" as="geometry" />
        </mxCell>
        <mxCell id="Vw9tJEkoh5inFPpGIsFm-30" style="edgeStyle=orthogonalEdgeStyle;rounded=0;orthogonalLoop=1;jettySize=auto;html=1;exitX=1;exitY=0.5;exitDx=0;exitDy=0;entryX=1;entryY=0.5;entryDx=0;entryDy=0;dashed=1;dashPattern=1 1;strokeColor=#424242;strokeWidth=0.5;fontSize=14;fontColor=#424242;" edge="1" parent="Vw9tJEkoh5inFPpGIsFm-2" source="3ABSFbOW-w0yrB__tbnE-21" target="3ABSFbOW-w0yrB__tbnE-5">
          <mxGeometry relative="1" as="geometry" />
        </mxCell>
        <mxCell id="3ABSFbOW-w0yrB__tbnE-21" value="Create framework draft" style="text;html=1;align=center;verticalAlign=middle;whiteSpace=wrap;rounded=0;fillColor=#fff2cc;strokeColor=#d6b656;fontColor=#424242;" parent="Vw9tJEkoh5inFPpGIsFm-2" vertex="1">
          <mxGeometry x="20" y="223" width="165" height="30" as="geometry" />
        </mxCell>
        <mxCell id="3ABSFbOW-w0yrB__tbnE-38" value="" style="endArrow=none;dashed=1;html=1;rounded=0;fontSize=10;fontColor=#424242;elbow=vertical;entryX=0.5;entryY=1;entryDx=0;entryDy=0;exitX=0.5;exitY=0;exitDx=0;exitDy=0;" parent="Vw9tJEkoh5inFPpGIsFm-2" source="3ABSFbOW-w0yrB__tbnE-21" target="3ABSFbOW-w0yrB__tbnE-16" edge="1">
          <mxGeometry width="50" height="50" relative="1" as="geometry">
            <mxPoint x="97.00000000000011" y="221" as="sourcePoint" />
            <mxPoint x="97.00000000000011" y="131" as="targetPoint" />
          </mxGeometry>
        </mxCell>
        <mxCell id="3ABSFbOW-w0yrB__tbnE-30" value="Determine themes" style="text;html=1;align=center;verticalAlign=middle;whiteSpace=wrap;rounded=0;fillColor=#fff2cc;strokeColor=#d6b656;fontColor=#424242;" parent="Vw9tJEkoh5inFPpGIsFm-2" vertex="1">
          <mxGeometry x="20" y="183" width="165" height="30" as="geometry" />
        </mxCell>
        <mxCell id="3ABSFbOW-w0yrB__tbnE-33" value="Conduct text mining&amp;nbsp;" style="text;html=1;align=center;verticalAlign=middle;whiteSpace=wrap;rounded=0;fillColor=#fff2cc;strokeColor=#d6b656;fontColor=#424242;" parent="Vw9tJEkoh5inFPpGIsFm-2" vertex="1">
          <mxGeometry x="20" y="143" width="165" height="30" as="geometry" />
        </mxCell>
        <mxCell id="3ABSFbOW-w0yrB__tbnE-35" value="Interview coding" style="text;html=1;align=center;verticalAlign=middle;whiteSpace=wrap;rounded=0;fillColor=#fff2cc;strokeColor=#d6b656;fontColor=#424242;" parent="Vw9tJEkoh5inFPpGIsFm-2" vertex="1">
          <mxGeometry x="20" y="103" width="165" height="30" as="geometry" />
        </mxCell>
        <mxCell id="3ABSFbOW-w0yrB__tbnE-37" value="Edit the framework as necessary" style="text;html=1;align=center;verticalAlign=middle;whiteSpace=wrap;rounded=0;fillColor=#fff2cc;strokeColor=#d6b656;fontColor=#424242;" parent="Vw9tJEkoh5inFPpGIsFm-2" vertex="1">
          <mxGeometry x="14.5" y="339" width="165" height="30" as="geometry" />
        </mxCell>
        <mxCell id="Vw9tJEkoh5inFPpGIsFm-33" style="edgeStyle=orthogonalEdgeStyle;rounded=0;orthogonalLoop=1;jettySize=auto;html=1;exitX=0.5;exitY=1;exitDx=0;exitDy=0;entryX=0.499;entryY=-0.175;entryDx=0;entryDy=0;entryPerimeter=0;dashed=1;dashPattern=1 1;strokeColor=#424242;strokeWidth=1;fontSize=14;fontColor=#424242;" edge="1" parent="1" source="Vw9tJEkoh5inFPpGIsFm-4" target="3ABSFbOW-w0yrB__tbnE-29">
          <mxGeometry relative="1" as="geometry" />
        </mxCell>
        <mxCell id="Vw9tJEkoh5inFPpGIsFm-42" value="n=300" style="edgeLabel;html=1;align=center;verticalAlign=middle;resizable=0;points=[];fontSize=11;fontColor=#666666;" vertex="1" connectable="0" parent="Vw9tJEkoh5inFPpGIsFm-33">
          <mxGeometry x="-0.1393" y="1" relative="1" as="geometry">
            <mxPoint y="2" as="offset" />
          </mxGeometry>
        </mxCell>
        <mxCell id="Vw9tJEkoh5inFPpGIsFm-4" value="Survey" style="text;html=1;align=center;verticalAlign=middle;whiteSpace=wrap;rounded=1;fontSize=13;fillColor=#A7A7A7;fontColor=#424242;strokeColor=none;" vertex="1" parent="1">
          <mxGeometry x="451" y="91" width="120" height="30" as="geometry" />
        </mxCell>
        <mxCell id="Vw9tJEkoh5inFPpGIsFm-9" value="" style="group;fontColor=#424242;" vertex="1" connectable="0" parent="1">
          <mxGeometry x="400" y="500" width="196" height="60" as="geometry" />
        </mxCell>
        <mxCell id="Vw9tJEkoh5inFPpGIsFm-5" value="" style="rounded=0;whiteSpace=wrap;html=1;fontSize=13;fillColor=#e1d5e7;strokeColor=#9673a6;fontColor=#424242;" vertex="1" parent="Vw9tJEkoh5inFPpGIsFm-9">
          <mxGeometry y="5" width="40" height="20" as="geometry" />
        </mxCell>
        <mxCell id="Vw9tJEkoh5inFPpGIsFm-6" value="Researcher &amp;amp; participants" style="text;html=1;strokeColor=none;fillColor=none;align=left;verticalAlign=middle;whiteSpace=wrap;rounded=0;fontSize=11;fontColor=#424242;" vertex="1" parent="Vw9tJEkoh5inFPpGIsFm-9">
          <mxGeometry x="40" width="155" height="30" as="geometry" />
        </mxCell>
        <mxCell id="Vw9tJEkoh5inFPpGIsFm-7" value="" style="rounded=0;whiteSpace=wrap;html=1;fontSize=13;fillColor=#fff2cc;strokeColor=#d6b656;fontColor=#424242;" vertex="1" parent="Vw9tJEkoh5inFPpGIsFm-9">
          <mxGeometry y="35" width="40" height="20" as="geometry" />
        </mxCell>
        <mxCell id="Vw9tJEkoh5inFPpGIsFm-8" value="Researcher&amp;nbsp;" style="text;html=1;strokeColor=none;fillColor=none;align=left;verticalAlign=middle;whiteSpace=wrap;rounded=0;fontSize=11;fontColor=#424242;" vertex="1" parent="Vw9tJEkoh5inFPpGIsFm-9">
          <mxGeometry x="40" y="30" width="156" height="30" as="geometry" />
        </mxCell>
        <mxCell id="Vw9tJEkoh5inFPpGIsFm-14" value="" style="endArrow=none;html=1;rounded=0;fontSize=14;strokeWidth=2;fontColor=#424242;strokeColor=#424242;" edge="1" parent="1">
          <mxGeometry width="50" height="50" relative="1" as="geometry">
            <mxPoint x="360" y="79" as="sourcePoint" />
            <mxPoint x="360" y="52" as="targetPoint" />
          </mxGeometry>
        </mxCell>
        <mxCell id="Vw9tJEkoh5inFPpGIsFm-31" style="edgeStyle=orthogonalEdgeStyle;rounded=0;orthogonalLoop=1;jettySize=auto;html=1;exitX=0.5;exitY=1;exitDx=0;exitDy=0;dashed=1;dashPattern=1 1;strokeColor=#424242;strokeWidth=1;fontSize=14;fontColor=#424242;entryX=1;entryY=0.5;entryDx=0;entryDy=0;" edge="1" parent="1" source="3ABSFbOW-w0yrB__tbnE-37" target="3ABSFbOW-w0yrB__tbnE-36">
          <mxGeometry relative="1" as="geometry">
            <mxPoint x="450" y="380" as="targetPoint" />
          </mxGeometry>
        </mxCell>
        <mxCell id="Vw9tJEkoh5inFPpGIsFm-45" style="edgeStyle=orthogonalEdgeStyle;rounded=0;orthogonalLoop=1;jettySize=auto;html=1;exitX=1;exitY=0.5;exitDx=0;exitDy=0;dashed=1;dashPattern=1 2;strokeColor=#424242;strokeWidth=1;fontSize=11;fontColor=#666666;entryX=0;entryY=0.5;entryDx=0;entryDy=0;" edge="1" parent="1" source="3ABSFbOW-w0yrB__tbnE-37" target="Vw9tJEkoh5inFPpGIsFm-4">
          <mxGeometry relative="1" as="geometry">
            <mxPoint x="380.4814814814815" y="245" as="targetPoint" />
          </mxGeometry>
        </mxCell>
      </root>
    </mxGraphModel>
  </diagram>
</mxfile>
